<?xml version="1.0" standalone="no"?>
<!DOCTYPE svg PUBLIC "-//W3C//DTD SVG 20010904//EN"
 "http://www.w3.org/TR/2001/REC-SVG-20010904/DTD/svg10.dtd">
<svg version="1.0" xmlns="http://www.w3.org/2000/svg"
 width="256.000000pt" height="256.000000pt" viewBox="0 0 256.000000 256.000000"
 preserveAspectRatio="xMidYMid meet">
<metadata>
Created by potrace 1.10, written by Peter Selinger 2001-2011
</metadata>
<g transform="translate(0.000000,256.000000) scale(0.050000,-0.050000)"
fill="#7b7b7b" stroke="none">
<path d="M1620 5077 c0 -13 55 -108 122 -212 67 -103 119 -190 115 -193 -4 -3
-71 -47 -150 -99 -343 -225 -562 -602 -566 -978 l-1 -55 1420 0 1420 0 -1 55
c-4 377 -222 753 -566 978 -79 52 -146 96 -150 99 -4 3 48 90 115 193 130 201
143 235 86 235 -22 0 -80 -68 -160 -192 -139 -214 -111 -202 -334 -135 -92 28
-188 36 -410 36 -222 0 -318 -8 -410 -36 -223 -67 -195 -79 -333 135 -113 176
-197 248 -197 169z m367 -818 c89 -71 59 -225 -47 -240 -154 -21 -237 126
-131 232 60 60 109 62 178 8z m1324 -8 c106 -106 23 -253 -131 -232 -106 15
-136 169 -47 240 69 54 118 52 178 -8z"/>
<path d="M540 3403 c-154 -83 -160 -117 -160 -920 0 -670 2 -715 40 -793 103
-213 379 -225 528 -24 65 89 65 1539 0 1628 -105 141 -267 184 -408 109z"/>
<path d="M4280 3395 c-156 -106 -150 -68 -150 -915 0 -733 1 -759 41 -812 151
-202 426 -191 529 22 66 136 61 1463 -5 1590 -82 154 -278 208 -415 115z"/>
<path d="M1160 2319 c0 -1335 -21 -1261 357 -1279 l213 -10 10 -420 c11 -460
15 -478 136 -553 88 -55 248 -56 320 -3 129 96 133 112 144 562 l10 414 210 0
210 0 10 -414 c11 -450 15 -466 144 -562 72 -53 232 -52 320 3 121 75 125 93
136 553 l10 420 213 10 c378 18 357 -56 357 1279 l0 1081 -1400 0 -1400 0 0
-1081z"/>
</g>
</svg>
