<?xml version="1.0" standalone="no"?>
<!DOCTYPE svg PUBLIC "-//W3C//DTD SVG 20010904//EN"
 "http://www.w3.org/TR/2001/REC-SVG-20010904/DTD/svg10.dtd">
<svg version="1.0" xmlns="http://www.w3.org/2000/svg"
 width="256.000000pt" height="256.000000pt" viewBox="0 0 256.000000 256.000000"
 preserveAspectRatio="xMidYMid meet">
<metadata>
Created by potrace 1.10, written by Peter Selinger 2001-2011
</metadata>
<g transform="translate(0.000000,256.000000) scale(0.100000,-0.100000)"
fill="#7b7b7b" stroke="none">
<path d="M1660 2521 c-197 -73 -315 -194 -355 -363 -16 -67 -20 -178 -7 -178
4 0 40 9 80 20 229 63 362 195 393 386 14 88 5 164 -19 164 -9 -1 -51 -14 -92
-29z"/>
<path d="M1644 1930 c-23 -5 -95 -30 -160 -55 -173 -69 -208 -70 -359 -10 -69
26 -152 51 -196 57 -319 47 -626 -227 -680 -609 -32 -223 31 -549 156 -808
147 -304 347 -499 511 -497 39 0 99 15 206 52 146 51 154 52 237 47 70 -4 107
-13 195 -47 219 -84 275 -73 452 93 92 86 147 168 233 349 92 193 89 174 33
202 -100 51 -206 171 -253 288 -91 224 -54 425 111 597 30 32 69 68 85 80 l30
23 -78 74 c-147 139 -341 200 -523 164z"/>
</g>
</svg>
