<?xml version="1.0" encoding="iso-8859-1"?>
<!-- Generator: Adobe Illustrator 19.0.0, SVG Export Plug-In . SVG Version: 6.00 Build 0)  -->
<svg version="1.1" id="Capa_1" xmlns="http://www.w3.org/2000/svg" xmlns:xlink="http://www.w3.org/1999/xlink" x="0px" y="0px"
	 viewBox="0 0 450.065 450.065" style="enable-background:new 0 0 450.065 450.065;" xml:space="preserve">
<g id="XMLID_33_">
	<path id="XMLID_338_" d="M340,250.065c0,2.416-0.061,4.818-0.182,7.204c-3.628,71.586-61.028,128.985-132.613,132.614
		c-2.386,0.121-4.789,0.182-7.205,0.182s-4.818-0.061-7.205-0.182C121.21,386.255,63.811,328.855,60.182,257.27
		c-0.121-2.386-0.182-4.788-0.182-7.204c0-74.904,58.824-136.068,132.795-139.818c2.386-0.121,4.789-0.182,7.205-0.182
		s4.818,0.062,7.205,0.182c19.577,0.993,38.088,6.015,54.733,14.241l44.047-44.047C275.254,61.2,238.93,50.065,200,50.065
		c-110.457,0-200,89.543-200,200s89.543,200,200,200s200-89.543,200-200c0-38.931-11.135-75.255-30.376-105.984l-44.047,44.046
		C334.806,206.802,340,227.825,340,250.065z"/>
	<path id="XMLID_340_" d="M239.242,274.463l-75.001,11.362l11.361-75.001l63.57-63.571c-12.17-4.64-25.373-7.188-39.172-7.188
		c-60.752,0-110,49.248-110,110c0,60.751,49.248,110,110,110s110-49.249,110-110c0-13.8-2.548-27.002-7.188-39.173L239.242,274.463z
		"/>
	<polygon id="XMLID_341_" points="429.81,41.469 408.596,20.255 387.341,41.511 387.341,0 357.341,0 357.341,71.511 
		203.787,225.065 200,250.065 225,246.278 378.554,92.725 450.065,92.725 450.065,62.725 408.554,62.725 	"/>
</g>
<g>
</g>
<g>
</g>
<g>
</g>
<g>
</g>
<g>
</g>
<g>
</g>
<g>
</g>
<g>
</g>
<g>
</g>
<g>
</g>
<g>
</g>
<g>
</g>
<g>
</g>
<g>
</g>
<g>
</g>
</svg>
