<?xml version="1.0" standalone="no"?>
<!DOCTYPE svg PUBLIC "-//W3C//DTD SVG 20010904//EN"
 "http://www.w3.org/TR/2001/REC-SVG-20010904/DTD/svg10.dtd">
<svg version="1.0" xmlns="http://www.w3.org/2000/svg"
 width="256.000000pt" height="256.000000pt" viewBox="0 0 256.000000 256.000000"
 preserveAspectRatio="xMidYMid meet">
<metadata>
Created by potrace 1.10, written by Peter Selinger 2001-2011
</metadata>
<g transform="translate(0.000000,256.000000) scale(0.050000,-0.050000)"
fill="#7b7b7b" stroke="none">
<path d="M320 5065 c0 -103 400 -4531 410 -4541 19 -19 1781 -503 1830 -503
48 0 1813 485 1830 503 9 9 410 4453 410 4544 l0 52 -2240 0 -2240 0 0 -55z
m4086 -320 c11 -21 -340 -3926 -355 -3940 -6 -7 -343 -104 -749 -216 l-738
-205 -744 206 c-409 114 -746 210 -749 213 -7 7 -352 3863 -351 3922 0 37
3666 57 3686 20z"/>
<path d="M1160 4115 c0 -26 32 -396 70 -824 39 -427 70 -785 70 -794 0 -9 441
-17 980 -17 539 0 980 -7 980 -15 0 -29 -64 -735 -67 -737 -2 0 -145 -39 -318
-86 l-315 -84 -318 85 -319 84 -12 122 c-7 66 -18 168 -24 226 l-12 105 -267
0 -268 0 0 -55 c-1 -30 14 -227 33 -438 l34 -382 576 -160 575 -159 564 156
c311 86 571 164 578 172 8 9 43 349 78 756 35 407 69 787 76 845 l12 105
-1030 0 -1030 0 -13 125 c-6 69 -18 204 -25 300 l-14 175 1080 0 1080 0 12
125 c7 69 18 190 26 270 l13 145 -1402 0 -1403 0 0 -45z"/>
</g>
</svg>
