<?xml version="1.0" standalone="no"?>
<!DOCTYPE svg PUBLIC "-//W3C//DTD SVG 20010904//EN"
 "http://www.w3.org/TR/2001/REC-SVG-20010904/DTD/svg10.dtd">
<svg version="1.0" xmlns="http://www.w3.org/2000/svg"
 width="256.000000pt" height="256.000000pt" viewBox="0 0 256.000000 256.000000"
 preserveAspectRatio="xMidYMid meet">
<metadata>
Created by potrace 1.10, written by Peter Selinger 2001-2011
</metadata>
<g transform="translate(0.000000,256.000000) scale(0.100000,-0.100000)"
fill="#7b7b7b" stroke="none">
<path d="M193 2550 c-57 -12 -95 -33 -130 -74 -61 -68 -58 -14 -58 -1196 0
-1219 -5 -1142 74 -1213 72 -65 9 -62 1201 -62 1219 0 1142 -5 1213 74 65 72
62 9 62 1201 0 888 -2 1092 -14 1123 -18 53 -68 106 -121 131 -45 21 -53 21
-1115 23 -588 0 -1089 -3 -1112 -7z m500 -188 c38 -36 38 -98 1 -136 -51 -50
-144 -28 -162 39 -11 43 -4 70 24 99 42 41 91 40 137 -2z m271 1 c62 -62 21
-163 -66 -163 -86 0 -131 104 -72 163 41 42 97 42 138 0z m-537 3 c23 -20 28
-32 28 -71 0 -39 -5 -51 -28 -71 -71 -61 -180 1 -163 92 14 70 106 99 163 50z
m1773 -107 c21 -12 47 -38 59 -59 21 -38 21 -40 21 -920 0 -880 0 -882 -21
-920 -12 -21 -38 -47 -59 -59 -38 -21 -40 -21 -920 -21 -880 0 -882 0 -920 21
-21 12 -47 38 -59 59 -21 38 -21 42 -21 800 0 755 0 763 21 800 43 76 31 74
516 80 237 3 435 9 439 13 5 4 11 37 15 73 7 74 27 107 79 135 32 18 64 19
423 19 378 0 390 -1 427 -21z"/>
<path d="M1404 1494 c-246 -284 -309 -353 -319 -342 -7 7 -65 77 -129 156
l-117 142 -151 0 c-119 0 -148 -3 -141 -12 6 -7 122 -161 258 -343 137 -181
258 -342 270 -357 l22 -26 444 546 c244 300 452 557 462 569 l18 23 -154 0
-155 0 -308 -356z"/>
</g>
</svg>
