<?xml version="1.0" standalone="no"?>
<!DOCTYPE svg PUBLIC "-//W3C//DTD SVG 20010904//EN"
 "http://www.w3.org/TR/2001/REC-SVG-20010904/DTD/svg10.dtd">
<svg version="1.0" xmlns="http://www.w3.org/2000/svg"
 width="256.000000pt" height="256.000000pt" viewBox="0 0 256.000000 256.000000"
 preserveAspectRatio="xMidYMid meet">
<metadata>
Created by potrace 1.10, written by Peter Selinger 2001-2011
</metadata>
<g transform="translate(0.000000,256.000000) scale(0.050000,-0.050000)"
fill="#7b7b7b" stroke="none">
<path d="M1715 4529 l-935 -469 0 -757 0 -757 235 -12 c533 -29 952 -220 1025
-467 15 -53 20 -335 16 -912 l-6 -835 305 0 305 0 0 2340 c0 1287 -2 2340 -5
2339 -3 -1 -426 -212 -940 -470z"/>
<path d="M2780 4854 c0 -139 3 -150 45 -160 25 -6 503 -102 1063 -214 1147
-229 1099 -216 1142 -301 63 -120 -22 -259 -158 -259 -35 0 -513 90 -1062 200
-549 110 -1006 200 -1016 200 -9 0 -14 -38 -10 -84 l6 -84 1078 -175 c931
-151 1084 -181 1123 -218 64 -60 76 -128 38 -208 -60 -127 -45 -128 -1194 59
-572 94 -1044 170 -1048 170 -4 0 -7 -30 -7 -66 l0 -66 1062 -154 c585 -85
1086 -165 1115 -179 123 -59 122 -245 -2 -314 -48 -27 -1919 211 -2140 272
-29 8 -35 -4 -35 -72 0 -44 7 -81 15 -82 432 -21 2156 -261 2200 -305 94 -93
58 -247 -69 -295 -28 -11 -408 26 -1050 102 -553 65 -1026 119 -1051 119 l-45
0 0 -1210 0 -1210 1170 0 1170 0 0 2107 0 2107 -1125 224 c-619 124 -1145 230
-1170 236 -44 10 -45 6 -45 -140z m2051 -2643 c138 -139 -62 -342 -205 -208
-65 62 -62 161 7 216 70 55 138 52 198 -8z"/>
<path d="M573 2260 c-315 -57 -514 -163 -554 -296 -38 -126 -18 -429 33 -498
242 -327 1474 -327 1716 0 56 76 72 408 25 519 -88 212 -749 361 -1220 275z
m821 -110 c368 -106 434 -244 176 -371 -583 -288 -1899 -8 -1353 287 266 144
830 184 1177 84z"/>
<path d="M4 1137 l9 -184 86 -76 c310 -276 1312 -276 1622 0 l86 76 9 184 9
183 -78 -77 c-300 -299 -1374 -299 -1674 0 l-78 77 9 -183z"/>
<path d="M0 618 c0 -343 269 -487 910 -487 641 0 910 144 910 487 l0 149 -73
-73 c-295 -295 -1379 -295 -1674 0 l-73 73 0 -149z"/>
</g>
</svg>
